<mxfile host="app.diagrams.net" modified="2021-09-21T05:02:34.395Z" agent="5.0 (Macintosh; Intel Mac OS X 10_15_7) AppleWebKit/537.36 (KHTML, like Gecko) Chrome/93.0.4577.63 Safari/537.36" etag="NdoRSHOheQ-wPN927mGZ" version="15.2.9" type="github">
  <diagram id="ot4Xobmn7pG8lf5syc4n" name="Page-1">
    <mxGraphModel dx="344" dy="780" grid="1" gridSize="10" guides="1" tooltips="1" connect="1" arrows="1" fold="1" page="1" pageScale="1" pageWidth="850" pageHeight="1100" math="0" shadow="0">
      <root>
        <mxCell id="0" />
        <mxCell id="1" parent="0" />
        <mxCell id="DlAv5ZnW3agxkDPc7nPz-1" value="Books" style="whiteSpace=wrap;html=1;align=center;" vertex="1" parent="1">
          <mxGeometry x="440" y="170" width="100" height="40" as="geometry" />
        </mxCell>
        <mxCell id="DlAv5ZnW3agxkDPc7nPz-11" style="edgeStyle=orthogonalEdgeStyle;rounded=0;orthogonalLoop=1;jettySize=auto;html=1;exitX=0.5;exitY=1;exitDx=0;exitDy=0;entryX=0.25;entryY=0;entryDx=0;entryDy=0;endArrow=none;endFill=0;" edge="1" parent="1" source="DlAv5ZnW3agxkDPc7nPz-2" target="DlAv5ZnW3agxkDPc7nPz-1">
          <mxGeometry relative="1" as="geometry" />
        </mxCell>
        <mxCell id="DlAv5ZnW3agxkDPc7nPz-2" value="ISBN" style="ellipse;whiteSpace=wrap;html=1;align=center;fontStyle=4;" vertex="1" parent="1">
          <mxGeometry x="300" y="90" width="100" height="40" as="geometry" />
        </mxCell>
        <mxCell id="DlAv5ZnW3agxkDPc7nPz-12" style="edgeStyle=orthogonalEdgeStyle;rounded=0;orthogonalLoop=1;jettySize=auto;html=1;entryX=0.5;entryY=0;entryDx=0;entryDy=0;endArrow=none;endFill=0;" edge="1" parent="1" source="DlAv5ZnW3agxkDPc7nPz-3" target="DlAv5ZnW3agxkDPc7nPz-1">
          <mxGeometry relative="1" as="geometry" />
        </mxCell>
        <mxCell id="DlAv5ZnW3agxkDPc7nPz-3" value="Title" style="ellipse;whiteSpace=wrap;html=1;align=center;" vertex="1" parent="1">
          <mxGeometry x="440" y="90" width="100" height="40" as="geometry" />
        </mxCell>
        <mxCell id="DlAv5ZnW3agxkDPc7nPz-13" style="edgeStyle=orthogonalEdgeStyle;rounded=0;orthogonalLoop=1;jettySize=auto;html=1;entryX=0.75;entryY=0;entryDx=0;entryDy=0;endArrow=none;endFill=0;" edge="1" parent="1" source="DlAv5ZnW3agxkDPc7nPz-6" target="DlAv5ZnW3agxkDPc7nPz-1">
          <mxGeometry relative="1" as="geometry">
            <Array as="points">
              <mxPoint x="620" y="150" />
              <mxPoint x="515" y="150" />
            </Array>
          </mxGeometry>
        </mxCell>
        <mxCell id="DlAv5ZnW3agxkDPc7nPz-6" value="PublishingDate" style="ellipse;whiteSpace=wrap;html=1;align=center;" vertex="1" parent="1">
          <mxGeometry x="570" y="90" width="100" height="40" as="geometry" />
        </mxCell>
        <mxCell id="DlAv5ZnW3agxkDPc7nPz-7" value="Author" style="whiteSpace=wrap;html=1;align=center;" vertex="1" parent="1">
          <mxGeometry x="160" y="170" width="100" height="40" as="geometry" />
        </mxCell>
        <mxCell id="DlAv5ZnW3agxkDPc7nPz-9" style="edgeStyle=orthogonalEdgeStyle;rounded=0;orthogonalLoop=1;jettySize=auto;html=1;entryX=1;entryY=0.5;entryDx=0;entryDy=0;strokeWidth=3;" edge="1" parent="1" source="DlAv5ZnW3agxkDPc7nPz-8" target="DlAv5ZnW3agxkDPc7nPz-7">
          <mxGeometry relative="1" as="geometry" />
        </mxCell>
        <mxCell id="DlAv5ZnW3agxkDPc7nPz-10" style="edgeStyle=orthogonalEdgeStyle;rounded=0;orthogonalLoop=1;jettySize=auto;html=1;entryX=0;entryY=0.5;entryDx=0;entryDy=0;endArrow=none;endFill=0;" edge="1" parent="1" source="DlAv5ZnW3agxkDPc7nPz-8" target="DlAv5ZnW3agxkDPc7nPz-1">
          <mxGeometry relative="1" as="geometry" />
        </mxCell>
        <mxCell id="DlAv5ZnW3agxkDPc7nPz-8" value="Writes" style="shape=rhombus;perimeter=rhombusPerimeter;whiteSpace=wrap;html=1;align=center;" vertex="1" parent="1">
          <mxGeometry x="290" y="160" width="120" height="60" as="geometry" />
        </mxCell>
        <mxCell id="DlAv5ZnW3agxkDPc7nPz-24" style="edgeStyle=orthogonalEdgeStyle;rounded=0;orthogonalLoop=1;jettySize=auto;html=1;exitX=1;exitY=0.5;exitDx=0;exitDy=0;entryX=0;entryY=0.5;entryDx=0;entryDy=0;endArrow=none;endFill=0;strokeWidth=1;" edge="1" parent="1" source="DlAv5ZnW3agxkDPc7nPz-14" target="DlAv5ZnW3agxkDPc7nPz-22">
          <mxGeometry relative="1" as="geometry" />
        </mxCell>
        <mxCell id="DlAv5ZnW3agxkDPc7nPz-14" value="Customer" style="whiteSpace=wrap;html=1;align=center;" vertex="1" parent="1">
          <mxGeometry x="160" y="370" width="100" height="40" as="geometry" />
        </mxCell>
        <mxCell id="DlAv5ZnW3agxkDPc7nPz-19" style="edgeStyle=orthogonalEdgeStyle;rounded=0;orthogonalLoop=1;jettySize=auto;html=1;entryX=0.5;entryY=1;entryDx=0;entryDy=0;endArrow=none;endFill=0;strokeWidth=1;" edge="1" parent="1" source="DlAv5ZnW3agxkDPc7nPz-15" target="DlAv5ZnW3agxkDPc7nPz-14">
          <mxGeometry relative="1" as="geometry">
            <Array as="points">
              <mxPoint x="100" y="440" />
              <mxPoint x="170" y="440" />
              <mxPoint x="170" y="410" />
            </Array>
          </mxGeometry>
        </mxCell>
        <mxCell id="DlAv5ZnW3agxkDPc7nPz-15" value="ID" style="ellipse;whiteSpace=wrap;html=1;align=center;fontStyle=4" vertex="1" parent="1">
          <mxGeometry x="50" y="450" width="100" height="40" as="geometry" />
        </mxCell>
        <mxCell id="DlAv5ZnW3agxkDPc7nPz-20" style="edgeStyle=orthogonalEdgeStyle;rounded=0;orthogonalLoop=1;jettySize=auto;html=1;exitX=0.5;exitY=0;exitDx=0;exitDy=0;endArrow=none;endFill=0;strokeWidth=1;entryX=0.5;entryY=1;entryDx=0;entryDy=0;" edge="1" parent="1" source="DlAv5ZnW3agxkDPc7nPz-16" target="DlAv5ZnW3agxkDPc7nPz-14">
          <mxGeometry relative="1" as="geometry">
            <mxPoint x="210" y="420" as="targetPoint" />
          </mxGeometry>
        </mxCell>
        <mxCell id="DlAv5ZnW3agxkDPc7nPz-16" value="Name" style="ellipse;whiteSpace=wrap;html=1;align=center;" vertex="1" parent="1">
          <mxGeometry x="160" y="450" width="100" height="40" as="geometry" />
        </mxCell>
        <mxCell id="DlAv5ZnW3agxkDPc7nPz-21" style="edgeStyle=orthogonalEdgeStyle;rounded=0;orthogonalLoop=1;jettySize=auto;html=1;entryX=0.9;entryY=1;entryDx=0;entryDy=0;entryPerimeter=0;endArrow=none;endFill=0;strokeWidth=1;" edge="1" parent="1" source="DlAv5ZnW3agxkDPc7nPz-17" target="DlAv5ZnW3agxkDPc7nPz-14">
          <mxGeometry relative="1" as="geometry">
            <Array as="points">
              <mxPoint x="320" y="440" />
              <mxPoint x="250" y="440" />
            </Array>
          </mxGeometry>
        </mxCell>
        <mxCell id="DlAv5ZnW3agxkDPc7nPz-17" value="LoyaltyPoints" style="ellipse;whiteSpace=wrap;html=1;align=center;" vertex="1" parent="1">
          <mxGeometry x="270" y="450" width="100" height="40" as="geometry" />
        </mxCell>
        <mxCell id="DlAv5ZnW3agxkDPc7nPz-26" style="edgeStyle=orthogonalEdgeStyle;rounded=0;orthogonalLoop=1;jettySize=auto;html=1;exitX=0.5;exitY=0;exitDx=0;exitDy=0;entryX=0.5;entryY=1;entryDx=0;entryDy=0;endArrow=none;endFill=0;strokeWidth=3;" edge="1" parent="1" source="DlAv5ZnW3agxkDPc7nPz-18" target="DlAv5ZnW3agxkDPc7nPz-23">
          <mxGeometry relative="1" as="geometry" />
        </mxCell>
        <mxCell id="DlAv5ZnW3agxkDPc7nPz-18" value="Order" style="whiteSpace=wrap;html=1;align=center;" vertex="1" parent="1">
          <mxGeometry x="440" y="370" width="100" height="40" as="geometry" />
        </mxCell>
        <mxCell id="DlAv5ZnW3agxkDPc7nPz-25" style="edgeStyle=orthogonalEdgeStyle;rounded=0;orthogonalLoop=1;jettySize=auto;html=1;exitX=1;exitY=0.5;exitDx=0;exitDy=0;entryX=0;entryY=0.5;entryDx=0;entryDy=0;endArrow=none;endFill=0;strokeWidth=3;startArrow=classic;startFill=1;" edge="1" parent="1" source="DlAv5ZnW3agxkDPc7nPz-22" target="DlAv5ZnW3agxkDPc7nPz-18">
          <mxGeometry relative="1" as="geometry" />
        </mxCell>
        <mxCell id="DlAv5ZnW3agxkDPc7nPz-22" value="Places" style="shape=rhombus;perimeter=rhombusPerimeter;whiteSpace=wrap;html=1;align=center;" vertex="1" parent="1">
          <mxGeometry x="300" y="355" width="90" height="70" as="geometry" />
        </mxCell>
        <mxCell id="DlAv5ZnW3agxkDPc7nPz-27" style="edgeStyle=orthogonalEdgeStyle;rounded=0;orthogonalLoop=1;jettySize=auto;html=1;exitX=0.5;exitY=0;exitDx=0;exitDy=0;endArrow=none;endFill=0;strokeWidth=1;entryX=0.5;entryY=1;entryDx=0;entryDy=0;" edge="1" parent="1" source="DlAv5ZnW3agxkDPc7nPz-23" target="DlAv5ZnW3agxkDPc7nPz-1">
          <mxGeometry relative="1" as="geometry">
            <mxPoint x="490" y="220" as="targetPoint" />
          </mxGeometry>
        </mxCell>
        <mxCell id="DlAv5ZnW3agxkDPc7nPz-23" value="Contains" style="shape=rhombus;perimeter=rhombusPerimeter;whiteSpace=wrap;html=1;align=center;" vertex="1" parent="1">
          <mxGeometry x="430" y="250" width="120" height="60" as="geometry" />
        </mxCell>
      </root>
    </mxGraphModel>
  </diagram>
</mxfile>
